# AST/ASF file generated using VICON BodyLanguage
# -----------------------------------------------
:version 1.10
:name VICON
:units
  mass 1.0
  length 0.45
  angle deg
:documentation
   .ast/.asf automatically generated from VICON data using
   VICON BodyBuilder and BodyLanguage model FoxedUp or BRILLIANT.MOD
:root
   order TX TY TZ RX RY RZ
   axis XYZ
   position 0 0 0  
   orientation 0 0 0 
:bonedata
  begin
     id 1 
     name lhipjoint
     direction 0.64773 -0.699417 0.302095 
     length 2.48597 
     axis 0 0 0  XYZ
  end
  begin
     id 2 
     name lfemur
     direction 0.34202 -0.939693 0  
     length 6.71947  
     axis 0 0 20  XYZ
    dof rx ry rz
    limits (-160.0 20.0)
           (-70.0 70.0)
           (-60.0 70.0)
  end
  begin
     id 3 
     name ltibia
     direction 0.34202 -0.939693 0   
     length 8.08777   
     axis 0 0 20   XYZ
    dof rx
    limits (-10.0 170.0)
  end
  begin
     id 4 
     name lfoot
     direction 0.0808503 -0.222134 0.971658   
     length 2.08264   
     axis -90 7.62852e-016 20   XYZ
    dof rx rz
    limits (-45.0 90.0)
           (-70.0 20.0)
  end
  begin
     id 5 
     name ltoes
     direction 1.53502e-011 -4.22007e-011 1   
     length 1.04662   
     axis -90 7.62852e-016 20   XYZ
    dof rx
    limits (-90.0 20.0)
  end
  begin
     id 6 
     name rhipjoint
     direction -0.610924 -0.726792 0.313919   
     length 2.39233  
     axis 0 0 0  XYZ 
  end
  begin
     id 7 
     name rfemur
     direction -0.34202 -0.939693 0   
     length 6.96955   
     axis 0 0 -20   XYZ
    dof rx ry rz
    limits (-160.0 20.0)
           (-70.0 70.0)
           (-70.0 60.0)
  end
  begin
     id 8 
     name rtibia
     direction -0.34202 -0.939693 0   
     length 8.19584   
     axis 0 0 -20   XYZ
    dof rx
    limits (-10.0 170.0)
 end
 begin
     id 9 
     name rfoot
     direction -0.077777 -0.213691 0.9738   
     length 2.07539  
     axis -90 -7.62852e-016 -20   XYZ
    dof rx rz
    limits (-45.0 90.0)
           (-20.0 70.0)
  end
  begin
     id 10 
     name rtoes
     direction -1.53558e-011 -4.22006e-011 1   
     length 1.04381   
     axis -90 -7.62852e-016 -20   XYZ
    dof rx
    limits (-90.0 20.0)
  end
  begin
     id 11 
     name lowerback
     direction -0.00971646 0.996074 0.0879841   
     length 1.67643   
     axis 0 0 0   XYZ
    dof rx ry rz
    limits (-20.0 45.0)
           (-30.0 30.0)
           (-30.0 30.0)
  end
  begin
     id 12 
     name upperback
     direction 0.0127391 0.991676 0.128127   
     length 1.63741   
     axis 0 0 0   XYZ
    dof rx ry rz
    limits (-20.0 45.0)
           (-30.0 30.0)
           (-30.0 30.0)
  end
  begin
     id 13 
     name thorax
     direction 0.0167583 0.996049 0.0872067   
     length 1.65931   
     axis 0 0 0   XYZ
    dof rx ry rz
    limits (-20.0 45.0)
           (-30.0 30.0)
           (-30.0 30.0)
  end
  begin
     id 14 
     name lowerneck
     direction -0.0317829 0.998312 0.0486079   
     length 1.79021   
     axis 0 0 0   XYZ
    dof rx ry rz
    limits (-20.0 45.0)
           (-30.0 30.0)
           (-30.0 30.0)
  end
  begin
     id 15 
     name upperneck
     direction 0.0896851 0.972452 -0.215159   
     length 1.78797   
     axis 0 0 0   XYZ
    dof rx ry rz
    limits (-20.0 45.0)
           (-30.0 30.0)
           (-30.0 30.0)
  end
  begin
     id 16
     name head
     direction 0.0310949 0.996503 -0.0775582  
     length 1.81549  
     axis 0 0 0   XYZ
    dof rx ry rz
    limits (-20.0 45.0)
           (-30.0 30.0)
           (-30.0 30.0)
  end
  begin
     id 17 
     name lclavicle
     direction 0.853638 0.502051 -0.138733  
     length 3.31627  
     axis 0 0 0   XYZ
    dof ry rz
    limits (-20.0 10.0)
           (0.0 20.0)
  end
  begin
     id 18 
     name lhumerus
     direction 1 -4.48962e-011 -1.41788e-018   
     length 5.54893   
     axis 180 -30 -90   XYZ
    dof rx ry rz
    limits (-60.0 90.0)
           (-90.0 90.0)
           (-90.0 90.0)
  end
  begin
     id 19
     name lradius
     direction 1 -4.48962e-011 -4.95754e-027   
     length 3.02898   
     axis 180 -30 -90   XYZ
    dof rx
    limits (-10.0 170.0)
  end
  begin
     id 20
     name lwrist
     direction 1 -4.48952e-011 -1.03764e-026   
     length 1.51449   
     axis 9.09556e-015 90 90   XYZ
    dof ry
    limits (-180.0 0.0)
 end
  begin
     id 21 
     name lhand
     direction 1 -4.4902e-011 -2.07528e-026   
     length 0.640951   
     axis 1.3242e-014 90 90   XYZ
    dof rx rz
    limits (-90.0 90.0)
           (-45.0 45.0)
  end
  begin
     id 22 
     name lfingers
     direction 1 -4.49014e-011 -4.15056e-026   
     length 0.516751   
     axis 2.64841e-014 90 90   XYZ
    dof rx
    limits (0.0 90.0)
  end
  begin
     id 23
     name lthumb
     direction 0.707107 -6.35008e-011 0.707107   
     length 0.741954   
     axis -90 45 2.85299e-015   XYZ
    dof rx rz
    limits (-45.0 45.0)
           (-45.0 45.0)
  end
  begin
     id 24 
     name rclavicle
     direction -0.888531 0.455324 -0.0565039   
     length 3.20126  
     axis 0 0 0   XYZ 
    dof ry rz
    limits (-10.0 20.0)
           (-20.0 0.0)
  end
  begin
     id 25 
     name rhumerus
     direction -1 -4.48946e-011 -8.98298e-028  
     length 5.3519   
     axis 180 30 90   XYZ
    dof rx ry rz
    limits (-90.0 60.0)
           (-90.0 90.0)
           (-90.0 90.0)
  end
  begin
     id 26 
     name rradius
     direction -1 -4.4899e-011 -3.18779e-027   
     length 3.02531   
     axis 180 30 90   XYZ
    dof rx
    limits (-10.0 170.0)
  end
  begin
     id 27 
     name rwrist
     direction -1 -4.4897e-011 -1.03764e-026   
     length 1.51266   
     axis 9.09556e-015 -90 -90   XYZ
    dof ry
    limits (-180.0 0.0)
  end
  begin
     id 28
     name rhand
     direction -1 -4.48941e-011 -2.07528e-026   
     length 0.78389   
     axis 1.3242e-014 -90 -90   XYZ
    dof rx rz
    limits (-90.0 90.0)
           (-45.0 45.0)
  end
  begin
     id 29
     name rfingers
     direction -1 -4.49012e-011 -4.15056e-026   
     length 0.631992   
     axis 2.64841e-014 -90 -90   XYZ
    dof rx
    limits (0.0 90.0)
  end
  begin
     id 30
     name rthumb
     direction -0.707107 -6.3496e-011 0.707107   
     length 0.907418   
     axis -90 -45 -2.85299e-015   XYZ
    dof rx rz
    limits (-45.0 45.0)
           (-45.0 45.0)
  end
:hierarchy
  begin
    root lhipjoint rhipjoint lowerback
    lhipjoint lfemur
    lfemur ltibia
    ltibia lfoot
    lfoot ltoes
    rhipjoint rfemur
    rfemur rtibia
    rtibia rfoot
    rfoot rtoes
    lowerback upperback
    upperback thorax
    thorax lowerneck lclavicle rclavicle
    lowerneck upperneck
    upperneck head
    lclavicle lhumerus
    lhumerus lradius
    lradius lwrist
    lwrist lhand lthumb
    lhand lfingers
    rclavicle rhumerus
    rhumerus rradius
    rradius rwrist
    rwrist rhand rthumb
    rhand rfingers
  end

#!OML:ASF E:\Style3\Style3.ASF
:FULLY-SPECIFIED
:DEGREES
1170
root -0.650355 17.6101 -1.03463 -134.398 53.8179 -176.155
lowerback 23.737 3.17449 -5.53164
upperback 0.13183 2.39204 -3.33502
thorax -13.3009 1.38529 -1.47839
lowerneck -7.75835 10.5143 2.87533
upperneck -6.56648 13.9211 -11.1907
head 0.303128 7.12542 -3.61988
rclavicle -1.94809e-014 -3.33958e-014
rhumerus -11.6164 36.9819 -56.4352
rradius 146.453
rwrist -52.6254
rhand 24.7932 20.6061
rfingers 7.12502
rthumb 48.9712 -1.14047
lclavicle -1.94809e-014 -3.33958e-014
lhumerus -14.2113 -41.5249 72.7976
lradius 145.228
lwrist 53.0346
lhand 25.7145 17.6283
lfingers 7.12502
lthumb 49.8163 38.9469
rfemur -40.2476 -0.984113 17.4331
rtibia 14.671
rfoot -19.2322 -38.2006
rtoes 7.24779
lfemur -63.0514 -22.3917 7.1608
ltibia 22.7664
lfoot -5.53593 3.56531
ltoes -22.8453
1171
root -0.651238 17.609 -1.03489 -134.41 53.8189 -176.198
lowerback 23.7373 3.15601 -5.40414
upperback 0.139162 2.39451 -3.4207
thorax -13.2829 1.37526 -1.64889
lowerneck -8.12839 10.6082 3.18723
upperneck -5.41015 14.0602 -11.395
head 0.796633 7.1161 -3.66962
rclavicle 4.73108e-014 -9.14409e-015
rhumerus -11.6354 36.9033 -56.687
rradius 146.419
rwrist -52.5465
rhand 24.9205 20.5308
rfingers 7.12502
rthumb 49.0881 -1.15787
lclavicle 4.73108e-014 -9.14409e-015
lhumerus -14.0187 -41.4795 72.6311
lradius 145.215
lwrist 53.0507
lhand 25.4874 17.6245
lfingers 7.12502
lthumb 49.6083 39.0505
rfemur -40.312 -0.997538 17.4067
rtibia 14.7365
rfoot -19.1429 -38.2394
rtoes 7.00319
lfemur -63.0586 -22.3715 7.11606
ltibia 22.731
lfoot -5.51159 3.52416
ltoes -22.8557
1172
root -0.653274 17.6095 -1.03442 -134.484 53.7926 -176.286
lowerback 23.792 3.12443 -5.23073
upperback 0.155892 2.39006 -3.49745
thorax -13.2826 1.35949 -1.8355
lowerneck -8.66081 10.5774 3.26789
upperneck -4.06462 14.0681 -11.3768
head 1.33715 7.03272 -3.60599
rclavicle 7.63333e-014 -3.22031e-014
rhumerus -11.5912 36.8101 -56.8356
rradius 146.41
rwrist -52.4271
rhand 24.9488 20.4801
rfingers 7.12502
rthumb 49.1141 -1.19562
lclavicle 7.63333e-014 -3.22031e-014
lhumerus -13.8057 -41.4496 72.4441
lradius 145.214
lwrist 53.0918
lhand 25.3597 17.4539
lfingers 7.12502
lthumb 49.4912 38.9397
rfemur -40.3403 -1.00199 17.3611
rtibia 14.8057
rfoot -19.1312 -38.3106
rtoes 6.8498
lfemur -63.0519 -22.3806 7.05047
ltibia 22.6809
lfoot -5.47764 3.45444
ltoes -22.7207
1173
root -0.654232 17.6107 -1.03458 -134.566 53.8158 -176.393
lowerback 23.7624 3.1773 -5.26551
upperback 0.194117 2.45848 -3.46718
thorax -13.2251 1.39388 -1.80113
lowerneck -9.58848 10.4689 3.41988
upperneck -2.20023 14.012 -11.4701
head 2.14155 6.88153 -3.5725
rclavicle -9.50191e-014 -1.98785e-014
rhumerus -11.4614 36.6611 -56.7219
rradius 146.406
rwrist -52.4895
rhand 25.0455 20.3965
rfingers 7.12502
rthumb 49.2029 -1.2349
lclavicle -9.50191e-014 -1.98785e-014
lhumerus -13.6163 -41.4376 72.4916
lradius 145.219
lwrist 53.0725
lhand 25.4598 17.4634
lfingers 7.12502
lthumb 49.583 38.9024
rfemur -40.3798 -1.0989 17.3294
rtibia 14.8656
rfoot -19.1983 -38.2402
rtoes 6.95293
lfemur -63.0362 -22.3663 6.93515
ltibia 22.6427
lfoot -5.4813 3.37462
ltoes -22.4959
1174
root -0.652803 17.6118 -1.0353 -134.578 53.8617 -176.368
lowerback 23.7387 3.23835 -5.32131
upperback 0.21962 2.52987 -3.4399
thorax -13.187 1.43073 -1.76043
lowerneck -10.5399 10.4561 3.66315
upperneck -0.0553728 14.1106 -11.9182
head 2.81269 6.76989 -3.28335
rclavicle -6.20208e-014 9.58142e-014
rhumerus -11.3394 36.5779 -56.6729
rradius 146.388
rwrist -52.5179
rhand 25.3987 20.483
rfingers 7.12502
rthumb 49.527 -0.98458
lclavicle -6.20208e-014 9.58142e-014
lhumerus -13.5686 -41.4286 72.5384
lradius 145.23
lwrist 53.0386
lhand 25.6597 17.4288
lfingers 7.12502
lthumb 49.7661 38.7735
rfemur -40.3653 -1.09546 17.3339
rtibia 14.9022
rfoot -19.159 -38.2029
rtoes 6.87014
lfemur -62.9431 -22.334 6.86731
ltibia 22.6107
lfoot -5.48399 3.37722
ltoes -22.3846
1175
root -0.650815 17.6129 -1.0362 -134.594 53.9361 -176.332
lowerback 23.7098 3.2634 -5.34612
upperback 0.248688 2.55914 -3.45989
thorax -13.1374 1.44533 -1.77599
lowerneck -11.3119 10.5214 3.93189
upperneck 1.97446 14.328 -12.075
head 3.59773 6.73905 -3.25515
rclavicle -8.34896e-015 5.725e-014
rhumerus -11.1649 36.4339 -56.7029
rradius 146.351
rwrist -52.551
rhand 25.965 20.7483
rfingers 7.12502
rthumb 50.0456 -0.45046
lclavicle -8.34896e-015 5.725e-014
lhumerus -13.5571 -41.368 72.4517
lradius 145.277
lwrist 53.0568
lhand 25.7124 17.5039
lfingers 7.12502
lthumb 49.8144 38.8235
rfemur -40.3332 -1.14144 17.3783
rtibia 14.9236
rfoot -19.0382 -38.1204
rtoes 6.7728
lfemur -62.8274 -22.3069 6.78926
ltibia 22.5875
lfoot -5.47058 3.39124
ltoes -22.6122
1176
root -0.650076 17.6156 -1.03618 -134.676 53.969 -176.394
lowerback 23.7594 3.24521 -5.24385
upperback 0.245276 2.5498 -3.55423
thorax -13.1597 1.43165 -1.94166
lowerneck -12.0821 10.5494 4.21779
upperneck 4.10229 14.5164 -12.1499
head 4.41228 6.6929 -3.21061
rclavicle -4.85035e-014 -5.4467e-014
rhumerus -11.0793 36.3216 -56.8877
rradius 146.318
rwrist -52.5082
rhand 26.033 20.8052
rfingers 7.12502
rthumb 50.1078 -0.360794
lclavicle -4.85035e-014 -5.4467e-014
lhumerus -13.5205 -41.3518 72.241
lradius 145.305
lwrist 53.0844
lhand 25.772 17.4951
lfingers 7.12502
lthumb 49.869 38.7863
rfemur -40.2919 -1.1397 17.3161
rtibia 14.9058
rfoot -18.9981 -38.1111
rtoes 6.82192
lfemur -62.7612 -22.3262 6.70741
ltibia 22.5476
lfoot -5.45427 3.38872
ltoes -22.8781
1177
root -0.650728 17.6145 -1.03492 -134.741 53.8845 -176.493
lowerback 23.6688 3.26954 -5.2684
upperback 0.284417 2.59471 -3.46006
thorax -13.0694 1.45667 -1.82776
lowerneck -12.6849 10.5681 4.5109
upperneck 6.10136 14.7405 -12.4935
head 5.19653 6.66642 -3.25892
rclavicle 3.57812e-014 2.5842e-015
rhumerus -10.8301 36.1567 -56.6493
rradius 146.277
rwrist -52.5513
rhand 25.7684 20.6662
rfingers 7.12502
rthumb 49.8657 -0.626801
lclavicle 3.57812e-014 2.5842e-015
lhumerus -13.4372 -41.2734 72.237
lradius 145.361
lwrist 53.1804
lhand 25.7448 17.4939
lfingers 7.12502
lthumb 49.8441 38.7981
rfemur -40.2877 -1.09124 17.235
rtibia 14.8928
rfoot -19.1681 -38.2358
rtoes 6.96605
lfemur -62.7949 -22.3591 6.69918
ltibia 22.4909
lfoot -5.39716 3.31419
ltoes -22.9763
1178
root -0.645578 17.6156 -1.03544 -134.863 53.8554 -176.555
lowerback 23.729 3.25316 -5.19387
upperback 0.294901 2.58673 -3.49569
thorax -13.0854 1.4474 -1.91097
lowerneck -13.2439 10.6147 4.89904
upperneck 8.03434 15.0038 -12.789
head 5.97024 6.66758 -3.31156
rclavicle 4.07509e-014 3.16068e-014
rhumerus -10.7508 36.071 -56.6898
rradius 146.277
rwrist -52.5943
rhand 25.4789 20.5949
rfingers 7.12502
rthumb 49.6005 -0.835086
lclavicle 4.07509e-014 3.16068e-014
lhumerus -13.2027 -41.2397 72.0584
lradius 145.298
lwrist 53.2547
lhand 25.7283 17.5865
lfingers 7.12502
lthumb 49.8289 38.8986
rfemur -40.1826 -1.04137 17.1886
rtibia 14.9082
rfoot -19.325 -38.31
rtoes 7.09565
lfemur -62.636 -22.3446 6.54085
ltibia 22.3955
lfoot -5.33318 3.17725
ltoes -23.2937
1179
root -0.64112 17.6173 -1.03681 -134.898 53.8552 -176.593
lowerback 23.6591 3.28486 -5.25257
upperback 0.33604 2.62765 -3.43404
thorax -13.0045 1.47195 -1.81479
lowerneck -13.7013 10.595 5.09428
upperneck 9.59071 15.2066 -13.1439
head 6.60538 6.65462 -3.37763
rclavicle -8.96519e-014 4.25399e-014
rhumerus -10.5205 36.0348 -56.4464
rradius 146.273
rwrist -52.652
rhand 25.1957 20.6143
rfingers 7.12502
rthumb 49.3408 -0.94776
lclavicle -8.96519e-014 4.25399e-014
lhumerus -12.6179 -41.2969 72.3186
lradius 144.734
lwrist 53.1161
lhand 25.6744 17.7994
lfingers 7.12502
lthumb 49.7796 39.1371
rfemur -40.1651 -1.0748 17.2025
rtibia 14.9104
rfoot -19.1408 -38.3632
rtoes 6.80169
lfemur -62.5646 -22.3534 6.50807
ltibia 22.2971
lfoot -5.30576 3.18329
ltoes -23.1476
1180
root -0.639265 17.6195 -1.03676 -134.939 53.8532 -176.661
lowerback 23.6923 3.25259 -5.16729
upperback 0.346734 2.60165 -3.49175
thorax -13.0032 1.45326 -1.92125
lowerneck -13.855 10.5871 5.35097
upperneck 10.6009 15.3509 -13.4467
head 7.01612 6.65685 -3.47045
rclavicle 3.37934e-014 -1.09332e-014
rhumerus -10.3919 36.0981 -56.3647
rradius 146.281
rwrist -52.6069
rhand 25.0384 20.6279
rfingers 7.12502
rthumb 49.1965 -1.00673
lclavicle 3.37934e-014 -1.09332e-014
lhumerus -12.5055 -41.1575 72.038
lradius 144.939
lwrist 53.3376
lhand 25.4508 17.8829
lfingers 7.12502
lthumb 49.5747 39.3261
rfemur -40.1658 -1.07155 17.1571
rtibia 14.8931
rfoot -19.0666 -38.4267
rtoes 6.92372
lfemur -62.5182 -22.3674 6.48699
ltibia 22.1746
lfoot -5.24068 3.15385
ltoes -23.1352
